Coordinates
version=1
nRows=8
nColumns=63
inDegrees=yes

Units are S.I. units (second, meters, Newtons, ...)
If the header above contains a line with 'inDegrees', this indicates whether rotational values are in degrees (yes) or radians (no).

endheader
time	pelvis_tilt	pelvis_list	pelvis_rotation	pelvis_tx	pelvis_ty	pelvis_tz	hip_flexion_r	hip_adduction_r	hip_rotation_r	knee_angle_r	knee_angle_r_beta	ankle_angle_r	subtalar_angle_r	mtp_angle_r	hip_flexion_l	hip_adduction_l	hip_rotation_l	knee_angle_l	knee_angle_l_beta	ankle_angle_l	subtalar_angle_l	mtp_angle_l	L5_S1_Flex_Ext	L5_S1_Lat_Bending	L5_S1_axial_rotation	L4_L5_Flex_Ext	L4_L5_Lat_Bending	L4_L5_axial_rotation	L3_L4_Flex_Ext	L3_L4_Lat_Bending	L3_L4_axial_rotation	L2_L3_Flex_Ext	L2_L3_Lat_Bending	L2_L3_axial_rotation	L1_L2_Flex_Ext	L1_L2_Lat_Bending	L1_L2_axial_rotation	L1_T12_Flex_Ext	L1_T12_Lat_Bending	L1_T12_axial_rotation	Abs_r3	Abs_r2	Abs_r1	Abs_t1	Abs_t2	neck_flexion	neck_bending	neck_rotation	arm_flex_r	arm_add_r	arm_rot_r	elbow_flex_r	pro_sup_r	wrist_flex_r	wrist_dev_r	arm_flex_l	arm_add_l	arm_rot_l	elbow_flex_l	pro_sup_l	wrist_flex_l	wrist_dev_l
      3.35000000	    -38.70336120	     12.23298209	    -71.55204470	     -0.10267008	      0.96505890	     -0.97893785	     47.26466593	     -9.91057387	      0.00000000	     60.45934252	      1.05521459	      0.00000000	      0.00000000	      0.00000000	     47.26466593	     -9.91057387	      0.00000000	     60.45934252	      1.05521459	      0.00000000	      0.00000000	      0.00000000	     -0.05083359	     -1.24260151	     -1.14363326	     -0.09440306	     -1.65266001	     -1.21511034	     -0.08351451	     -3.02126131	     -1.21511034	     -0.05809771	     -3.02126131	     -1.00067911	     -0.04720407	     -2.53391300	     -0.92920203	     -0.02904631	     -1.92478974	     -0.85772495	     -0.36309927	    -14.05655678	     -6.36054512	      0.00000000	      0.00000000	    -14.20995307	     14.33613930	     -3.10215029	    -22.46915587	    -45.23154945	    -89.51337255	    110.68286154	     89.99559364	      0.00000000	      0.00000000	      8.78637167	    -61.30167267	      2.57539279	     32.44812736	     89.99559364	      0.00000000	      0.00000000
      3.36666667	    -38.71278145	     12.41614290	    -69.80429528	     -0.10046802	      0.96541513	     -0.96965220	     47.26743895	     -9.91112176	      0.00000000	     60.45871495	      1.05520364	      0.00000000	      0.00000000	      0.00000000	     47.26743895	     -9.91112176	      0.00000000	     60.45871495	      1.05520364	      0.00000000	      0.00000000	      0.00000000	     -0.04945512	     -1.24688193	     -1.34385500	     -0.09184311	     -1.65835297	     -1.42784594	     -0.08124982	     -3.03166873	     -1.42784594	     -0.05652226	     -3.03166873	     -1.17587313	     -0.04592403	     -2.54264164	     -1.09188219	     -0.02825866	     -1.93142011	     -1.00789125	     -0.35325299	    -14.10497779	     -7.47411836	      0.00000000	      0.00000000	    -14.43328878	     14.52692207	     -3.24317701	    -22.50129360	    -45.04987431	    -89.46589278	    112.39556522	     89.99559364	      0.00000000	      0.00000000	      8.57647940	    -61.42771641	      2.42065741	     32.77634035	     89.99559364	      0.00000000	      0.00000000
      3.38333333	    -39.29994914	     12.72175667	    -68.30887616	     -0.09870358	      0.96494417	     -0.96387255	     47.28123035	     -9.91381557	      0.00000000	     60.45559690	      1.05514922	      0.00000000	      0.00000000	      0.00000000	     47.28123035	     -9.91381557	      0.00000000	     60.45559690	      1.05514922	      0.00000000	      0.00000000	      0.00000000	     -0.04632183	     -1.15087271	     -1.60940232	     -0.08602426	     -1.53066071	     -1.70998997	     -0.07610213	     -2.79823191	     -1.70998997	     -0.05294121	     -2.79823191	     -1.40822703	     -0.04301445	     -2.34685963	     -1.30763939	     -0.02646829	     -1.78270183	     -1.20705174	     -0.33087217	    -13.01890229	     -8.95101288	      0.00000000	      0.00000000	    -14.90291625	     14.54479973	     -2.72998403	    -21.53954776	    -45.80465142	    -88.97359858	    113.88497460	     89.99559364	      0.00000000	      0.00000000	      6.53741538	    -60.82246166	     -1.28315095	     34.14664725	     89.99559364	      0.00000000	      0.00000000
      3.40000000	    -40.22331570	     13.17813289	    -66.32838924	     -0.09731820	      0.96404440	     -0.96202467	     47.30348381	     -9.91775908	      0.00000000	     60.45053474	      1.05506087	      0.00000000	      0.00000000	      0.00000000	     47.30348381	     -9.91775908	      0.00000000	     60.45053474	      1.05506087	      0.00000000	      0.00000000	      0.00000000	     -0.04067824	     -1.00802494	     -2.00355829	     -0.07554356	     -1.34067317	     -2.12878069	     -0.06683029	     -2.45091183	     -2.12878069	     -0.04649116	     -2.45091183	     -1.75311351	     -0.03777382	     -2.05556445	     -1.62789111	     -0.02324355	     -1.56143063	     -1.50266872	     -0.29056062	    -11.40297969	    -11.14319016	      0.00000000	      0.00000000	    -14.75694420	     13.73548445	     -1.61750452	    -19.83598181	    -46.99139639	    -87.60478538	    115.05460725	     89.99559364	      0.00000000	      0.00000000	      4.96935508	    -59.93022869	     -5.11680982	     35.62142152	     89.99559364	      0.00000000	      0.00000000
      3.41666667	    -41.14649427	     13.72046623	    -63.98883590	     -0.09635228	      0.96330288	     -0.96274827	     47.31389824	     -9.91937279	      0.00000000	     60.44813579	      1.05501900	      0.00000000	      0.00000000	      0.00000000	     47.31389824	     -9.91937279	      0.00000000	     60.44813579	      1.05501900	      0.00000000	      0.00000000	      0.00000000	     -0.03744310	     -0.87039694	     -2.39976927	     -0.06953558	     -1.15762794	     -2.54975485	     -0.06151527	     -2.11628313	     -2.54975485	     -0.04279372	     -2.11628313	     -2.09979811	     -0.03476966	     -1.77491345	     -1.94981253	     -0.02139499	     -1.34824487	     -1.79982696	     -0.26745231	     -9.84610431	    -13.34679677	      0.00000000	      0.00000000	    -14.49217669	     13.55619563	     -1.52726792	    -18.27121268	    -47.97933586	    -86.33474179	    116.04652367	     89.99559364	      0.00000000	      0.00000000	      5.47743475	    -59.48930562	     -5.41283578	     36.83000456	     89.99559364	      0.00000000	      0.00000000
      3.43333333	    -41.95781412	     14.27159175	    -61.96030851	     -0.09565784	      0.96286914	     -0.96403672	     47.33410390	     -9.92275490	      0.00000000	     60.44355637	      1.05493907	      0.00000000	      0.00000000	      0.00000000	     47.33410390	     -9.92275490	      0.00000000	     60.44355637	      1.05493907	      0.00000000	      0.00000000	      0.00000000	     -0.03428891	     -0.73966487	     -2.69455852	     -0.06367793	     -0.98375428	     -2.86296842	     -0.05633325	     -1.79842117	     -2.86296842	     -0.03918880	     -1.79842117	     -2.35773870	     -0.03184068	     -1.50832461	     -2.18932879	     -0.01959268	     -1.14574089	     -2.02091889	     -0.24492225	     -8.36723697	    -14.98632610	      0.00000000	      0.00000000	    -14.80789558	     12.41126883	     -1.39304575	    -17.06846576	    -48.77832831	    -85.52065414	    117.04361017	     89.99559364	      0.00000000	      0.00000000	      6.43954910	    -58.63137700	     -6.87419355	     38.36433355	     89.99559364	      0.00000000	      0.00000000
      3.45000000	    -42.42949253	     14.83805549	    -60.39701203	     -0.09519742	      0.96304074	     -0.96454989	     47.34645252	     -9.92476719	      0.00000000	     60.44076474	      1.05489035	      0.00000000	      0.00000000	      0.00000000	     47.34645252	     -9.92476719	      0.00000000	     60.44076474	      1.05489035	      0.00000000	      0.00000000	      0.00000000	     -0.03355885	     -0.65034171	     -2.82801200	     -0.06232214	     -0.86495447	     -3.00476275	     -0.05513383	     -1.58124083	     -3.00476275	     -0.03835441	     -1.58124083	     -2.47451050	     -0.03116275	     -1.32617681	     -2.29775975	     -0.01917553	     -1.00737931	     -2.12100900	     -0.23970750	     -7.35679547	    -15.72855434	      0.00000000	      0.00000000	    -15.14044892	     12.38319840	     -2.36898974	    -16.89925636	    -49.06237807	    -85.62467430	    118.11010735	     89.99559364	      0.00000000	      0.00000000	      8.88316607	    -58.16358490	     -5.49525048	     39.28618066	     89.99559364	      0.00000000	      0.00000000
      3.46666667	    -42.34326702	     15.53544085	    -59.33523385	     -0.09502262	      0.96401190	     -0.96360188	     47.35905806	     -9.92686276	      0.00000000	     60.43793818	      1.05484101	      0.00000000	      0.00000000	      0.00000000	     47.35905806	     -9.92686276	      0.00000000	     60.43793818	      1.05484101	      0.00000000	      0.00000000	      0.00000000	     -0.03555579	     -0.63618748	     -2.83393698	     -0.06603066	     -0.84612935	     -3.01105804	     -0.05841461	     -1.54682624	     -3.01105804	     -0.04063672	     -1.54682624	     -2.47969486	     -0.03301711	     -1.29731351	     -2.30257379	     -0.02031658	     -0.98545441	     -2.12545273	     -0.25397148	     -7.19668002	    -15.76150729	      0.00000000	      0.00000000	    -15.99072553	     13.01058372	     -4.57976698	    -17.66106343	    -48.64160203	    -86.30927749	    119.22099278	     89.99559364	      0.00000000	      0.00000000	     12.14851363	    -58.10195976	     -2.27685048	     39.43564466	     89.99559364	      0.00000000	      0.00000000
